<?xml version="1.0" encoding="UTF-8"?>
<svg id="Layer_1" data-name="Layer 1" xmlns="http://www.w3.org/2000/svg" viewBox="0 0 154 139">
  <defs>
    <style>
      .cls-1 {
        letter-spacing: 0em;
      }

      .cls-2, .cls-3 {
        stroke-width: 0px;
      }

      .cls-4 {
        letter-spacing: -.03em;
      }

      .cls-3 {
        fill: #fff;
      }

      .cls-5 {
        font-family: Heavitas, Heavitas;
        font-size: 16px;
      }
    </style>
  </defs>
  <rect class="cls-3" x="6" y="7.5" width="142" height="124"/>
  <text class="cls-5" transform="translate(20.91 116.22)"><tspan x="0" y="0">Currenc</tspan><tspan class="cls-4" x="85.01" y="0">i</tspan><tspan class="cls-1" x="89.93" y="0">ty</tspan></text>
  <path class="cls-2" d="M27.78,92.27c0-.4.38-.79.69-1.4,3.57,1.89,7.03,3.68,10.45,5.56.42.23.82.87.86,1.35.09,1.07.18,2.14.26,3.22h2.24c-.06-.88-.13-1.78-.17-2.7,3.56.95,6.87,1.83,10.08,2.7h11.34c-.29-.38-.46-.94-.45-1.73,0-.56-.01-1.12-.01-1.69,0-2.52,0-5.04,0-7.5,1.44,1.09,2.75,2.21,4.21,3.09.42.25,1.26-.2,1.91-.32-.27-.51-.57-1-.82-1.52-.46-.99-1.32-2.04-1.24-3,.18-2.27.26-4.13-2.84-3.67.22-4.03.79-4.79,4.19-4.18,2.2.4,4.2,1.79,6.37,2.47,1.23.38,2.66.38,3.95.18.41-.06.64-1.3,1.13-2.38,1.74-.21,3.96-.57,6.19-.66.53-.02,1.53.85,1.59,1.39.4,3.59.61,7.21.88,10.8-.64.07-.95.16-.98.1-2.41-4.45-7.23-2.81-10.85-3.9-1.74-.53-4.4,1.76-6.53,2.98-.3.17-.05,1.56.16,2.33.56,2.09-1.1,5.79-3.09,7.2h33.22c2.87-.98,5.75-1.96,8.86-3.02.1,1.02.14,2.02.16,3.02h2.01c.01-.47.02-.93.02-1.39-.02-1.97.64-3.23,2.56-3.78.54-.16,1.13-.32,1.54-.66,2.11-1.75,3.52-1.37,5.18.86.7.93,2.82.81,4.76,1.28-.1,1.17-.19,2.42-.3,3.7h3.15c.03-.71.06-1.41.06-2.13.16-28.02-23.21-52.56-52.07-51.86-28.57-.6-52.15,23.15-52.26,51.5,0,.83.02,1.66.05,2.49h3.54c-.02-2.91-.02-5.82,0-8.73ZM107.09,96.5c-2.94,1.2-6.03,2.03-9.04,3.07-1.95.67-2.91-.16-3.69-1.89-.5-1.1-1.5-1.97-2.22-2.98-.51-.72-1.25-1.46-1.35-2.25-.45-3.62-.85-7.26-.95-10.9-.02-.84,1.02-2.19,1.86-2.49,4.21-1.53,8.52-2.78,13.28-4.29,2.64,6.09,4.25,12.48,4.19,19.21,0,.87-1.16,2.15-2.07,2.52ZM115.79,69.72c2.7,2.38,3.12,4.97,2.11,7.76-.78,2.17-1,4.59-1.15,6.92-.13,2.19.76,4.62.08,6.55-.55,1.57-2.75,2.57-4.22,3.82-.35-.2-.69-.4-1.04-.59-.23-1.92-.3-3.88-.73-5.76-.97-4.29-2.02-8.57-3.23-12.8-.48-1.67-.14-2.71,1.35-3.46.84-.42,1.65-.9,2.52-1.24,1.39-.55,2.29-2.98,4.3-1.21ZM106.12,59.89c2.48,2.22,4.91,4.49,7.48,6.85-.72.66-1.03,1-1.39,1.27-5.26,3.86-5.49,3.8-8.82-1.53-1.37-2.2-2.85-4.34-4.27-6.49,3.27-2.44,4.37-2.46,7-.1ZM100.4,55.94c-2.83,2.84-4.52,2.13-7.42-3.19,2.39,1.03,4.78,2.06,7.42,3.19ZM88.56,63.07c2.57-.84,5.23-1.46,7.9-1.91.56-.09,1.48.76,1.92,1.4,1.68,2.47,3.37,4.95,4.75,7.59.38.73,0,2.72-.53,2.93-4.19,1.69-8.5,3.09-13,4.66-.92-4.59-1.78-8.49-2.4-12.43-.11-.69.7-2.01,1.35-2.23ZM80.7,55.26c-1.71-.61-3.17-1.12-4.73-1.68,3.14-1.9,4.03-1.61,4.73,1.68ZM66.39,73.09c1.47-.7,2.58.4,2.95,2.06.13.6.52,1.13.8,1.7.31.04.62.09.92.13.4-1.16.93-2.29,1.18-3.48.4-1.94,1.11-3.48,3.12-4.3.87-.35,1.52-1.28,2.21-2,.7-.74,1.17-1.84,2.01-2.29,2.85-1.53,5.31-2.02,5.9,2.09.4,2.77.97,5.52,1.55,8.26.36,1.72-.12,2.82-1.95,2.92-4.1.22-8.19.41-12.29.47-1.85.03-3.74-.1-5.53-.51-1.05-.24-2.79-1.26-2.74-1.78.12-1.18.9-2.79,1.88-3.26ZM62.53,73c-.13,1.88-.21,2.89-.3,4.21-1.42-.26-2.53-.47-3.64-.67-.1-.3-.2-.6-.29-.9,1.17-.73,2.33-1.46,4.23-2.64ZM58.55,78.28c.85.96,1.69,1.92,2.54,2.88-.62.41-1.7,1.27-1.8,1.17-.85-.88-1.53-1.92-2.26-2.92.51-.38,1.02-.76,1.53-1.13ZM56.34,85.99c3.05.1,4.63,1.72,4.53,4.8-.1,3.24-.02,6.48-.02,9.99-6.56-.54-12.08-2.56-17.51-4.82-.59-.25-1.14-1.59-1.04-2.33.7-5.33,1.58-10.64,2.46-16.31,2.07.9,2.34,3.88,3.99,1.9,1.29,1.82,2.48,3.9,4.09,5.59.76.8,2.3,1.14,3.51,1.18ZM49.65,57.39c.35.3.69.59,1.04.89-2.28,3.94-4.57,7.89-7.04,12.17-1.44-.87-2.98-1.81-5.17-3.13,4.02-3.57,7.6-6.74,11.18-9.92ZM36.72,70.1c.17-.21.52-.55.63-.5,2.06.99,4.2,1.9,6.09,3.16.54.36.65,1.85.47,2.71-1.15,5.55-2.47,11.07-3.67,16.61-.35,1.63-1.05,2.39-2.69,1.48-2.53-1.4-5.08-2.76-7.53-4.3-.67-.42-.99-1.4-1.35-1.95,1.89-6.4,4.12-12.22,8.06-17.22Z"/>
</svg>