<?xml version="1.0" encoding="UTF-8"?>
<svg id="Layer_1" data-name="Layer 1" xmlns="http://www.w3.org/2000/svg" viewBox="0 0 154 139">
  <defs>
    <style>
      .cls-1 {
        stroke-width: 0px;
      }
    </style>
  </defs>
  <path class="cls-1" d="M62.23,77.21c.1-1.33.17-2.33.3-4.21-1.9,1.18-3.06,1.91-4.23,2.64.1.3.2.6.29.9,1.11.2,2.21.41,3.64.67Z"/>
  <path class="cls-1" d="M67.25,78.13c1.79.41,3.68.54,5.53.51,4.1-.06,8.2-.25,12.29-.47,1.83-.1,2.31-1.2,1.95-2.92-.58-2.74-1.15-5.49-1.55-8.26-.59-4.11-3.06-3.62-5.9-2.09-.84.45-1.31,1.55-2.01,2.29-.69.73-1.34,1.65-2.21,2-2.02.82-2.72,2.36-3.12,4.3-.24,1.19-.78,2.32-1.18,3.48-.31-.04-.62-.09-.92-.13-.27-.56-.67-1.1-.8-1.7-.37-1.66-1.48-2.76-2.95-2.06-.98.47-1.76,2.08-1.88,3.26-.05.52,1.69,1.54,2.74,1.78Z"/>
  <path class="cls-1" d="M75.97,53.58c1.57.56,3.02,1.07,4.73,1.68-.71-3.28-1.59-3.58-4.73-1.68Z"/>
  <path class="cls-1" d="M61.09,81.16c-.85-.96-1.69-1.92-2.54-2.88-.51.38-1.02.76-1.53,1.13.73,1,1.41,2.04,2.26,2.92.1.1,1.18-.75,1.8-1.17Z"/>
  <path class="cls-1" d="M50.69,58.28c-.35-.3-.69-.59-1.04-.89-3.58,3.18-7.16,6.35-11.18,9.92,2.19,1.33,3.73,2.26,5.17,3.13,2.48-4.28,4.76-8.23,7.04-12.17Z"/>
  <path class="cls-1" d="M44.76,77.32c-.88,5.68-1.75,10.98-2.46,16.31-.1.74.45,2.08,1.04,2.33,5.43,2.26,10.95,4.29,17.51,4.82,0-3.51-.08-6.76.02-9.99.1-3.08-1.48-4.71-4.53-4.8-1.2-.04-2.75-.38-3.51-1.18-1.6-1.69-2.79-3.77-4.09-5.59-1.64,1.98-1.91-.99-3.99-1.9Z"/>
  <path class="cls-1" d="M102.6,73.07c.52-.21.91-2.2.53-2.93-1.38-2.64-3.07-5.12-4.75-7.59-.43-.64-1.36-1.49-1.92-1.4-2.67.45-5.33,1.07-7.9,1.91-.65.21-1.46,1.54-1.35,2.23.61,3.94,1.48,7.84,2.4,12.43,4.49-1.57,8.8-2.97,13-4.66Z"/>
  <path class="cls-1" d="M108.97,72.17c-1.49.75-1.83,1.79-1.35,3.46,1.21,4.23,2.26,8.51,3.23,12.8.42,1.88.49,3.84.73,5.76.35.2.69.4,1.04.59,1.47-1.25,3.67-2.25,4.22-3.82.68-1.93-.21-4.36-.08-6.55.14-2.33.36-4.75,1.15-6.92,1.01-2.79.59-5.37-2.11-7.76-2-1.77-2.91.66-4.3,1.21-.87.34-1.69.82-2.52,1.24Z"/>
  <path class="cls-1" d="M30.01,89.27c2.44,1.53,5,2.9,7.53,4.3,1.64.91,2.34.15,2.69-1.48,1.2-5.54,2.52-11.06,3.67-16.61.18-.87.07-2.36-.47-2.71-1.89-1.26-4.02-2.17-6.09-3.16-.11-.05-.46.29-.63.5-3.94,5.01-6.17,10.82-8.06,17.22.36.55.68,1.53,1.35,1.95Z"/>
  <path class="cls-1" d="M91.69,79.06c-.84.31-1.89,1.65-1.86,2.49.1,3.64.5,7.28.95,10.9.1.8.84,1.54,1.35,2.25.72,1.01,1.73,1.88,2.22,2.98.78,1.73,1.74,2.57,3.69,1.89,3.01-1.04,6.1-1.87,9.04-3.07.91-.37,2.06-1.65,2.07-2.52.06-6.72-1.55-13.11-4.19-19.21-4.76,1.51-9.07,2.76-13.28,4.29Z"/>
  <path class="cls-1" d="M103.38,66.48c3.33,5.34,3.56,5.39,8.82,1.53.36-.27.67-.61,1.39-1.27-2.57-2.36-5-4.63-7.48-6.85-2.64-2.36-3.73-2.34-7,.1,1.42,2.15,2.89,4.29,4.27,6.49Z"/>
  <path class="cls-1" d="M100.4,55.94c-2.63-1.13-5.03-2.16-7.42-3.19,2.9,5.32,4.59,6.03,7.42,3.19Z"/>
  <path class="cls-1" d="M6,7.5v124h142V7.5H6ZM76.45,47.01c28.86-.7,52.23,23.83,52.07,51.86,0,.71-.03,1.42-.06,2.13h-3.15c.1-1.28.2-2.53.3-3.7-1.94-.47-4.06-.34-4.76-1.28-1.66-2.24-3.08-2.61-5.18-.86-.41.34-1.01.5-1.54.66-1.92.56-2.58,1.81-2.56,3.78,0,.46,0,.93-.02,1.39h-2.01c-.02-1-.06-2-.16-3.02-3.11,1.06-6,2.04-8.86,3.02h-33.22c1.99-1.41,3.65-5.11,3.09-7.2-.21-.77-.46-2.15-.16-2.33,2.13-1.22,4.79-3.51,6.53-2.98,3.62,1.09,8.45-.55,10.85,3.9.03.06.34-.03.98-.1-.27-3.59-.48-7.21-.88-10.8-.06-.54-1.06-1.41-1.59-1.39-2.23.08-4.45.45-6.19.66-.49,1.08-.72,2.32-1.13,2.38-1.29.2-2.72.2-3.95-.18-2.17-.67-4.17-2.07-6.37-2.47-3.4-.61-3.97.14-4.19,4.18,3.1-.46,3.02,1.39,2.84,3.67-.08.96.78,2.01,1.24,3,.24.52.54,1.01.82,1.52-.65.13-1.49.58-1.91.32-1.46-.88-2.77-2-4.21-3.09,0,2.46,0,4.98,0,7.5,0,.56.02,1.12.01,1.69,0,.79.16,1.35.45,1.73h-11.34c-3.21-.87-6.52-1.75-10.08-2.7.05.92.11,1.82.17,2.7h-2.24c-.09-1.08-.17-2.15-.26-3.22-.04-.48-.44-1.12-.86-1.35-3.42-1.88-6.88-3.67-10.45-5.56-.31.61-.69,1-.69,1.4-.02,2.91-.02,5.82,0,8.73h-3.54c-.04-.83-.05-1.66-.05-2.49.11-28.35,23.69-52.09,52.26-51.5ZM24.69,111.56c.15.37.36.69.62.97s.58.5.94.67.74.26,1.14.26c.59,0,1.12-.14,1.59-.42.47-.28.85-.65,1.13-1.1.05-.08.13-.15.23-.19.1-.04.21-.04.31,0l2.27.9c.1.04.16.11.19.2s.02.18-.03.28c-.31.5-.65.95-1.02,1.36-.37.41-.79.76-1.26,1.04-.46.29-.98.51-1.54.67-.57.16-1.19.24-1.87.24-.85,0-1.65-.16-2.4-.48-.75-.32-1.4-.75-1.96-1.3-.56-.54-1-1.18-1.32-1.92-.32-.74-.48-1.52-.48-2.35s.16-1.62.48-2.35c.32-.74.76-1.38,1.32-1.92.56-.54,1.21-.98,1.96-1.3s1.55-.48,2.4-.48c.7,0,1.34.08,1.9.24s1.08.38,1.54.67c.46.29.87.64,1.24,1.05s.71.86,1.02,1.35c.05.09.06.18.03.27-.03.1-.1.17-.19.21l-2.27.9c-.11.04-.21.04-.32,0-.11-.04-.19-.11-.24-.19-.31-.49-.68-.87-1.12-1.13s-.97-.39-1.58-.39c-.41,0-.79.09-1.14.26s-.67.4-.94.68c-.27.28-.47.61-.62.99-.15.37-.22.76-.22,1.15s.08.79.22,1.16ZM44.49,111.39c0,.76-.12,1.45-.36,2.06-.24.62-.58,1.15-1.03,1.58s-.99.78-1.61,1.02c-.63.24-1.33.36-2.09.36s-1.46-.12-2.09-.36c-.63-.24-1.17-.58-1.61-1.02s-.79-.97-1.04-1.58c-.25-.62-.37-1.31-.37-2.06v-6.48c0-.11.04-.2.11-.27s.16-.11.27-.11h2.4c.11,0,.2.04.27.11s.11.17.11.27v6.48c0,.42.07.76.2,1.03.13.27.3.49.5.64.2.15.41.26.63.33.22.06.43.1.61.1s.38-.03.61-.1c.22-.06.43-.17.63-.33.19-.15.36-.37.49-.64s.2-.62.2-1.03v-6.48c0-.11.04-.2.11-.27s.16-.11.27-.11h2.4c.11,0,.2.04.27.11s.11.17.11.27v6.48ZM57.23,116.07c-.03.1-.1.15-.21.15h-2.98c-.11,0-.22-.03-.34-.09-.12-.06-.22-.13-.28-.22-.34-.45-.68-.9-1.01-1.36-.33-.46-.67-.92-1-1.39-.06-.08-.15-.16-.27-.21-.12-.06-.23-.09-.33-.09h-.35c-.11,0-.2.04-.27.11s-.11.17-.11.27v2.59c0,.11-.04.2-.11.27s-.17.11-.27.11h-2.4c-.11,0-.2-.04-.27-.11-.08-.08-.11-.17-.11-.27v-10.94c0-.11.04-.2.11-.27.07-.07.17-.11.27-.11h4.98c.62,0,1.19.1,1.71.31.52.21.97.5,1.34.87.37.37.66.82.86,1.33.21.51.31,1.08.31,1.7,0,.34-.04.68-.12,1.02s-.19.65-.34.95c-.15.3-.33.57-.53.81-.2.24-.43.44-.69.6-.09.06-.14.14-.17.23-.03.09,0,.18.06.26.41.53.83,1.08,1.28,1.65.45.57.85,1.08,1.2,1.55.06.08.08.18.05.28ZM68.75,116.07c-.03.1-.1.15-.21.15h-2.98c-.11,0-.22-.03-.34-.09-.12-.06-.22-.13-.28-.22-.34-.45-.68-.9-1.01-1.36-.33-.46-.67-.92-1-1.39-.06-.08-.15-.16-.27-.21-.12-.06-.23-.09-.33-.09h-.35c-.11,0-.2.04-.27.11-.08.07-.11.17-.11.27v2.59c0,.11-.04.2-.11.27-.08.07-.17.11-.27.11h-2.4c-.11,0-.2-.04-.27-.11s-.11-.17-.11-.27v-10.94c0-.11.04-.2.11-.27s.17-.11.27-.11h4.98c.62,0,1.19.1,1.71.31.52.21.97.5,1.34.87.37.37.66.82.86,1.33.21.51.31,1.08.31,1.7,0,.34-.04.68-.12,1.02-.08.34-.2.65-.34.95-.15.3-.33.57-.53.81-.2.24-.43.44-.69.6-.08.06-.14.14-.17.23-.03.09,0,.18.06.26.41.53.83,1.08,1.28,1.65.45.57.85,1.08,1.2,1.55.06.08.08.18.05.28ZM78.83,107.07c0,.11-.04.2-.11.27-.08.08-.17.11-.27.11h-4.98c-.11,0-.2.04-.27.11-.07.08-.11.17-.11.27v.67c0,.11.04.2.11.27.08.07.17.11.27.11h4.34c.11,0,.2.04.27.11.08.08.11.17.11.27v2.21c0,.11-.04.2-.11.27-.07.08-.17.11-.27.11h-4.34c-.11,0-.2.04-.27.11-.07.08-.11.17-.11.27v.61c0,.11.04.2.11.27.08.07.17.11.27.11h4.98c.11,0,.2.04.27.11s.11.16.11.27v2.21c0,.11-.04.2-.11.27-.08.07-.17.11-.27.11h-8.14c-.11,0-.2-.04-.27-.11-.07-.08-.11-.17-.11-.27v-10.94c0-.11.04-.2.11-.27.08-.07.17-.11.27-.11h8.14c.11,0,.2.04.27.11.07.07.11.17.11.27v2.18ZM91.87,115.84c0,.11-.04.2-.11.27-.08.07-.17.11-.27.11h-2.36c-.11,0-.22-.03-.34-.1-.12-.06-.21-.14-.27-.22l-4.17-5.87c-.06-.09-.13-.12-.2-.1-.07.02-.1.08-.1.18v5.73c0,.11-.04.2-.11.27-.08.07-.17.11-.27.11h-2.4c-.11,0-.2-.04-.27-.11s-.11-.17-.11-.27v-10.94c0-.11.04-.2.11-.27s.17-.11.27-.11h2.4c.11,0,.22.03.34.09s.21.13.27.22l4.16,5.87c.06.08.13.12.2.11s.1-.07.1-.18v-5.73c0-.11.04-.2.11-.27.07-.07.17-.11.27-.11h2.37c.11,0,.2.04.27.11.08.07.11.17.11.27v10.94ZM97.18,111.56c.15.37.36.69.62.97s.58.5.94.67.74.26,1.14.26c.59,0,1.12-.14,1.59-.42.47-.28.85-.65,1.13-1.1.05-.08.13-.15.23-.19.1-.04.21-.04.31,0l2.27.9c.1.04.16.11.19.2s.02.18-.03.28c-.31.5-.65.95-1.02,1.36-.37.41-.79.76-1.26,1.04-.46.29-.98.51-1.54.67-.57.16-1.19.24-1.87.24-.85,0-1.65-.16-2.4-.48-.75-.32-1.4-.75-1.96-1.3-.56-.54-1-1.18-1.32-1.92-.32-.74-.48-1.52-.48-2.35s.16-1.62.48-2.35c.32-.74.76-1.38,1.32-1.92.56-.54,1.21-.98,1.96-1.3s1.55-.48,2.4-.48c.7,0,1.34.08,1.9.24s1.08.38,1.54.67c.46.29.87.64,1.24,1.05s.71.86,1.02,1.35c.05.09.06.18.03.27-.03.1-.1.17-.19.21l-2.27.9c-.11.04-.21.04-.32,0-.11-.04-.19-.11-.24-.19-.31-.49-.68-.87-1.12-1.13s-.97-.39-1.58-.39c-.41,0-.79.09-1.14.26s-.67.4-.94.68c-.27.28-.47.61-.62.99-.15.37-.22.76-.22,1.15s.08.79.22,1.16ZM110.08,115.84c0,.11-.04.2-.11.27-.07.07-.17.11-.27.11h-2.4c-.12,0-.21-.04-.28-.11-.07-.08-.1-.17-.1-.27v-10.93c0-.11.03-.2.1-.27s.16-.11.28-.11h2.4c.11,0,.2.04.27.11s.11.17.11.27v10.93ZM120.43,107.07c0,.11-.03.2-.1.27s-.16.11-.28.11h-2.24c-.11,0-.2.04-.27.11s-.11.17-.11.27v8c0,.11-.04.2-.1.27-.07.07-.16.11-.28.11h-2.4c-.11,0-.2-.04-.27-.11s-.11-.17-.11-.27v-8c0-.11-.04-.2-.1-.27-.07-.07-.16-.11-.28-.11h-2.27c-.11,0-.2-.04-.27-.11-.08-.08-.11-.17-.11-.27v-2.18c0-.11.04-.2.11-.27.07-.07.17-.11.27-.11h8.45c.12,0,.21.04.28.11s.1.17.1.27v2.18ZM131.98,104.98l-4,6.48c-.05.1-.1.21-.14.35s-.06.26-.06.37v3.66c0,.11-.04.2-.11.27s-.16.11-.27.11h-2.4c-.11,0-.2-.04-.27-.11-.07-.08-.11-.17-.11-.27v-3.65c0-.11-.02-.23-.06-.38-.04-.14-.08-.26-.14-.34-.64-1.1-1.29-2.18-1.96-3.23-.67-1.06-1.33-2.14-1.99-3.26-.05-.1-.06-.19-.03-.3.03-.1.1-.15.21-.15h2.85c.11,0,.22.03.33.1.11.06.19.14.25.24l1.96,3.42c.05.08.12.13.19.13s.14-.04.19-.13l1.94-3.42c.05-.1.14-.18.25-.24.11-.06.22-.1.33-.1h2.88c.11,0,.18.04.23.11s.03.19-.06.34Z"/>
  <path class="cls-1" d="M53.08,107.93c-.09-.13-.21-.25-.37-.34s-.34-.14-.57-.14h-1.69c-.11,0-.2.04-.27.11-.07.08-.11.17-.11.27v1.7c0,.11.04.2.11.27s.17.11.27.11h1.69c.13,0,.26-.02.4-.07s.26-.12.38-.22.21-.23.29-.38.11-.32.11-.53c0-.11-.02-.23-.06-.38s-.1-.28-.19-.42Z"/>
  <path class="cls-1" d="M64.6,107.93c-.09-.13-.21-.25-.37-.34-.15-.09-.34-.14-.57-.14h-1.69c-.11,0-.2.04-.27.11s-.11.17-.11.27v1.7c0,.11.04.2.11.27.07.07.16.11.27.11h1.69c.13,0,.26-.02.4-.07.14-.05.27-.12.38-.22.12-.1.21-.23.29-.38.07-.15.11-.32.11-.53,0-.11-.02-.23-.06-.38s-.1-.28-.19-.42Z"/>
</svg>