<?xml version="1.0" encoding="UTF-8"?>
<svg id="Layer_1" data-name="Layer 1" xmlns="http://www.w3.org/2000/svg" viewBox="0 0 298 275">
  <defs>
    <style>
      .cls-1 {
        fill: #ffd791;
      }

      .cls-1, .cls-2, .cls-3, .cls-4, .cls-5 {
        stroke-width: 0px;
      }

      .cls-2 {
        fill: #779fa1;
      }

      .cls-3 {
        fill: #d5573b;
      }

      .cls-5 {
        fill: #885053;
      }
    </style>
  </defs>
  <circle class="cls-3" cx="165" cy="136" r="96"/>
  <path class="cls-1" d="M134,102l55.39,78.41c-25.11,17.74-57.28,22.38-86.39,12.45-49.84-17-76.87-72.01-59.87-121.85,6.56-19.23,19.05-35.89,35.68-47.56l55.18,78.56Z"/>
  <path class="cls-5" d="M188,178l-55.39-78.41c25.11-17.74,57.28-22.38,86.39-12.45,49.84,17,76.87,72.01,59.87,121.85-6.56,19.23-19.05,35.89-35.68,47.56l-55.18-78.56Z"/>
  <g>
    <path class="cls-4" d="M38.74,139.28c.24.04.47.08.71.13.23.05.46.11.69.19.64.2,1.27.5,1.87.9.29.18.57.39.84.62s.52.48.77.75c.49.55.9,1.15,1.21,1.79.48.98.75,2,.8,3.05s-.09,2.07-.42,3.04c-.32.96-.83,1.83-1.51,2.64-.68.8-1.51,1.45-2.49,1.93s-2,.75-3.05.8c-1.04.04-2.05-.09-3.03-.4-.97-.35-1.85-.86-2.65-1.53-.8-.68-1.45-1.51-1.93-2.49-.32-.64-.54-1.33-.68-2.05-.13-.71-.17-1.41-.12-2.09.03-.36.08-.71.15-1.05s.17-.67.27-.99c.17-.48.37-.91.6-1.3.09-.16.22-.24.38-.26.16-.01.3.04.44.16l1.25,1.12c.13.11.22.26.26.45.04.19.02.37-.05.53-.03.1-.07.19-.11.29-.04.1-.07.19-.1.29-.07.21-.13.41-.17.61-.04.2-.07.41-.09.62-.02.21-.03.43-.01.64.01.21.03.42.05.63.07.42.2.83.39,1.21.3.62.72,1.14,1.25,1.59.54.42,1.11.72,1.73.9.64.19,1.29.26,1.96.23.68-.04,1.34-.21,1.97-.52.64-.32,1.18-.73,1.61-1.24.44-.51.77-1.08,1.01-1.69.25-.61.35-1.24.32-1.91,0-.67-.16-1.33-.48-1.97-.19-.39-.43-.74-.73-1.04-.15-.15-.3-.29-.47-.43-.16-.14-.33-.27-.51-.38s-.37-.21-.56-.3c-.19-.09-.39-.16-.6-.23-.09-.03-.19-.06-.29-.09-.1-.03-.2-.06-.29-.09-.17-.04-.33-.13-.46-.28-.13-.14-.2-.3-.21-.47l-.12-1.67c-.01-.18.04-.33.15-.45.11-.12.26-.17.44-.15Z"/>
    <path class="cls-4" d="M39.64,132.27c-.07.9-.28,1.69-.65,2.37-.37.72-.89,1.35-1.56,1.88-.66.52-1.47.92-2.42,1.21l-8.14,2.45c-.17.05-.34.04-.5-.05-.16-.08-.26-.21-.31-.37l-.48-1.59c-.05-.17-.04-.34.05-.5.08-.16.21-.26.39-.31l8.12-2.45c.74-.22,1.31-.53,1.72-.91.4-.38.69-.79.88-1.23.18-.46.26-.91.24-1.32-.01-.23-.03-.44-.06-.63-.03-.19-.07-.36-.12-.53-.09-.29-.25-.64-.49-1.04-.22-.39-.53-.71-.93-.97-.39-.28-.86-.46-1.42-.56s-1.2-.03-1.94.19l-8.12,2.45c-.17.05-.34.04-.5-.05s-.26-.21-.31-.39l-.47-1.57c-.05-.17-.04-.34.05-.5.08-.16.21-.26.39-.31l8.14-2.45c.47-.14.93-.24,1.37-.29.45-.05.88-.07,1.32-.04.84.07,1.62.3,2.33.68.68.38,1.3.92,1.85,1.62.52.68.94,1.5,1.23,2.48.29.98.41,1.89.34,2.73Z"/>
    <path class="cls-4" d="M36.29,118.27l.22,1.64c.02.18-.02.34-.13.48-.11.14-.25.22-.43.25l-13.95,1.86c-.18.02-.34-.02-.48-.13-.14-.11-.22-.25-.25-.43l-.84-6.29c-.1-.78-.07-1.51.09-2.19.19-.68.48-1.27.86-1.79.21-.27.43-.51.69-.73.25-.22.53-.41.83-.58.62-.34,1.31-.56,2.07-.66,1.18-.16,2.22,0,3.13.45.73.36,1.33.86,1.81,1.52.1.14.23.22.38.25.15.02.29-.03.41-.16.63-.61,1.22-1.18,1.77-1.73.56-.55,1.15-1.12,1.77-1.71.14-.13.29-.18.44-.15.16.03.25.13.27.31l.28,2.1c.02.18,0,.37-.07.58-.07.21-.17.38-.29.5-.29.28-.57.55-.85.82-.28.27-.57.54-.85.82l-1.75,1.63c-.14.13-.24.3-.31.51-.07.21-.09.4-.07.58l.21,1.6c.02.18.11.33.25.43.14.11.3.15.48.13l3.56-.47c.18-.03.34.01.48.12.14.1.22.24.25.42ZM28.69,117.99l-.45-3.37c-.03-.25-.12-.51-.27-.79-.15-.29-.35-.53-.58-.71-.24-.18-.52-.33-.86-.44-.31-.1-.69-.12-1.15-.06-.25.03-.51.1-.78.19-.15.05-.29.11-.43.18-.14.08-.27.16-.4.24-.26.2-.46.47-.61.8-.15.35-.19.77-.13,1.27l.45,3.37c.02.18.11.33.25.43s.3.15.48.13l3.93-.52c.18-.02.32-.11.43-.25.11-.14.15-.3.12-.48Z"/>
    <path class="cls-4" d="M34.93,103.77l-.03,1.66c0,.18-.07.33-.2.46-.13.12-.28.18-.47.18l-14.07-.28c-.18,0-.33-.07-.46-.2-.12-.13-.18-.28-.18-.47l.12-6.34c.02-.79.16-1.5.42-2.16.29-.64.67-1.18,1.12-1.64.24-.23.51-.44.79-.62.28-.18.59-.32.91-.44.66-.24,1.38-.35,2.15-.34,1.19.02,2.2.33,3.03.92.66.46,1.18,1.05,1.56,1.77.08.16.2.26.34.3.15.04.29.01.43-.1.71-.5,1.38-.99,2.01-1.44.63-.46,1.3-.93,2.01-1.42.16-.11.31-.14.46-.08.15.05.23.17.22.35l-.04,2.12c0,.18-.06.37-.16.56-.1.19-.22.35-.37.46-.33.23-.65.46-.97.68-.32.23-.64.45-.97.68l-1.98,1.35c-.16.11-.28.26-.39.45-.1.19-.15.38-.16.56l-.03,1.62c0,.18.06.34.18.47.12.13.28.19.46.2l3.59.07c.18,0,.34.07.46.19.12.12.18.27.18.46ZM27.46,102.34l.07-3.4c0-.25-.04-.53-.15-.82-.1-.31-.26-.57-.47-.79-.21-.21-.47-.4-.79-.56-.29-.15-.67-.22-1.13-.23-.25,0-.52.02-.8.07-.15.03-.31.06-.45.12-.15.05-.29.11-.43.18-.28.16-.53.4-.73.7-.2.32-.31.73-.32,1.23l-.07,3.4c0,.18.06.34.18.47.12.13.28.19.46.2l3.97.08c.18,0,.34-.06.47-.18.13-.12.19-.28.2-.46Z"/>
    <path class="cls-4" d="M23.96,86.55l2.51.42c.18.03.34,0,.49-.11.15-.1.23-.24.26-.42l1.02-6.05c.03-.18.12-.32.26-.42.15-.1.31-.14.49-.11l1.35.23c.18.03.32.12.42.26.1.15.14.31.11.49l-1.02,6.04c-.03.18,0,.34.11.49.1.14.25.23.42.26l2.28.38c.18.03.34,0,.49-.11.14-.1.23-.25.26-.42l1.18-6.98c.03-.18.12-.32.26-.42s.31-.14.49-.11l1.33.22c.18.03.32.12.42.26s.14.31.11.49l-1.67,9.88c-.03.18-.12.32-.26.42-.14.1-.31.14-.49.11l-13.87-2.35c-.18-.03-.32-.12-.42-.26-.1-.14-.14-.31-.11-.49l1.67-9.88c.03-.18.12-.32.26-.42.14-.1.31-.14.49-.11l1.28.22c.18.03.32.12.42.26.1.14.14.31.11.49l-1.18,6.98c-.03.18,0,.34.11.49.1.15.24.23.42.26Z"/>
    <path class="cls-4" d="M30.72,72.41l7.43,2.48c.17.06.3.17.38.33.08.16.09.33.03.5l-.53,1.57c-.05.16-.16.28-.32.36-.16.08-.33.09-.5.03l-13.62-4.55c-.17-.06-.25-.18-.23-.35.02-.18.11-.31.25-.39l11.19-5.98c.16-.09.24-.19.23-.29s-.1-.18-.28-.24l-7.57-2.53c-.17-.06-.3-.17-.38-.33-.08-.16-.09-.32-.03-.5l.52-1.55c.06-.17.17-.3.33-.38.16-.08.33-.09.5-.03l13.6,4.54c.17.06.25.17.23.35-.02.18-.11.31-.26.41l-11.04,6.01c-.15.1-.22.2-.21.3.01.1.1.18.28.24Z"/>
    <path class="cls-2" d="M46.76,49.02c.11.22.21.43.31.65s.18.44.25.67c.22.64.34,1.32.36,2.05.02.34.02.69,0,1.04s-.08.7-.16,1.06c-.16.72-.41,1.4-.74,2.03-.51.96-1.18,1.78-2,2.43-.82.66-1.73,1.14-2.71,1.44-.96.3-1.97.4-3.02.32-1.05-.08-2.06-.38-3.02-.89-.96-.51-1.78-1.18-2.43-2-.64-.82-1.13-1.72-1.45-2.69-.28-.99-.39-2-.31-3.04.08-1.05.38-2.06.89-3.02.34-.63.76-1.22,1.26-1.75.5-.53,1.04-.97,1.63-1.32.31-.19.62-.35.94-.49.32-.14.64-.26.96-.36.49-.14.95-.23,1.41-.28.18-.01.33.04.43.16.1.12.15.27.13.45l-.17,1.67c-.01.17-.08.33-.21.47-.13.14-.29.23-.46.27-.09.03-.19.06-.29.08-.1.03-.2.05-.29.08-.21.06-.41.14-.59.22-.19.08-.37.18-.56.29-.18.11-.36.23-.52.36-.17.13-.33.27-.48.41-.3.3-.55.64-.76,1.02-.32.61-.51,1.25-.55,1.94-.03.68.07,1.33.28,1.93.22.63.54,1.2.96,1.72.43.53.96.96,1.58,1.29.63.33,1.28.53,1.95.58.67.05,1.33,0,1.97-.17.64-.15,1.22-.44,1.74-.86.54-.39.98-.91,1.31-1.54.2-.38.34-.78.42-1.2.03-.21.05-.42.07-.63.02-.21.02-.42,0-.64-.01-.21-.04-.42-.08-.63-.04-.2-.09-.41-.16-.62-.03-.09-.06-.19-.1-.29-.04-.1-.07-.19-.1-.29-.07-.16-.09-.34-.05-.54s.13-.34.26-.45l1.28-1.08c.14-.12.29-.16.45-.14.16.02.29.11.38.27Z"/>
    <path class="cls-2" d="M52.56,46.6l-.94,1.36c-.1.15-.24.24-.41.26-.17.03-.33-.01-.48-.12l-11.55-8c-.15-.1-.24-.24-.28-.41-.04-.17,0-.33.1-.48l.94-1.36c.1-.15.24-.24.42-.27.18-.03.34,0,.49.11l11.55,8c.15.1.24.24.27.42.03.17,0,.34-.11.49Z"/>
    <path class="cls-2" d="M51.31,27.73l-1.99,2.36c-.12.14-.17.3-.15.48.02.18.09.32.23.44l8.78,7.38c.14.12.22.26.23.44.01.18-.04.34-.15.47l-1.05,1.25c-.12.14-.26.22-.44.23-.18.02-.33-.04-.47-.15l-8.78-7.38c-.14-.12-.3-.17-.48-.15-.18.02-.32.09-.44.23l-2,2.38c-.12.14-.26.22-.44.23-.18.01-.34-.04-.48-.15l-1-.84c-.14-.12-.22-.26-.23-.44s.03-.34.15-.47l6.72-7.99c.12-.14.26-.22.44-.23s.34.04.48.15l1,.84c.14.12.22.27.23.44.02.18-.04.34-.15.47Z"/>
    <path class="cls-2" d="M62.21,14.83c.05.29.11.59.17.91.06.31.12.65.17,1.01.08.47.17.95.26,1.43.09.49.18.98.27,1.48.08.51.17,1.01.26,1.5s.18.97.26,1.44c.06.36.12.7.17,1.03.06.33.12.64.18.94.03.18.1.38.22.59.12.21.24.39.36.53l3.01,3.36c.12.14.18.29.17.47,0,.18-.08.33-.22.45l-1.24,1.11c-.14.12-.29.17-.46.16-.17-.01-.32-.09-.44-.22l-3.01-3.36c-.12-.14-.29-.27-.49-.41-.21-.14-.4-.23-.57-.28-.78-.26-1.56-.51-2.34-.74-.78-.23-1.57-.46-2.37-.68-.82-.22-1.62-.45-2.41-.68-.79-.23-1.57-.47-2.35-.73-.18-.05-.27-.13-.3-.25-.02-.12.03-.24.17-.36l1.59-1.43c.14-.12.31-.21.52-.25.21-.05.4-.04.57.02.5.16.99.31,1.49.47.5.16,1,.31,1.52.47.51.17,1.01.33,1.5.48.5.16.99.31,1.49.47.17.06.3.04.4-.04s.13-.22.1-.4c-.04-.19-.08-.38-.11-.58-.03-.19-.07-.4-.11-.61l-.38-1.94c-.06-.32-.13-.64-.19-.96-.07-.32-.13-.63-.19-.96-.03-.2-.06-.39-.1-.59-.04-.19-.08-.38-.12-.57-.04-.17-.02-.36.05-.56.07-.2.17-.37.31-.49l1.6-1.43c.14-.12.26-.16.37-.12.11.04.19.15.23.32Z"/>
  </g>
</svg>